<svg width="119" height="53" viewBox="0 0 119 53" fill="none" xmlns="http://www.w3.org/2000/svg">
<g clip-path="url(#clip0)">
<path d="M21.7649 18.2782H18.4516C18.4516 18.0286 17.8226 16.1223 15.1604 16.1223C13.2105 16.1223 12.7974 17.1515 12.7974 17.8371C12.7974 19.4305 15.4392 19.7519 17.0134 20.1537C18.7916 20.6068 22.2766 21.5351 22.2766 25.0673C22.2766 27.0266 21.2294 28.302 20.3046 29.0389C19.084 29.9946 17.3789 30.4853 15.3814 30.4853C10.4378 30.4853 8.2771 27.6438 8.0459 24.9203H11.8148C11.8879 25.5272 12.6495 27.5429 15.5021 27.5429C17.9399 27.5429 18.2323 26.2436 18.2323 25.7033C18.2323 24.1612 16.0869 23.797 14.1965 23.3029C12.2432 22.79 8.8976 21.954 8.8976 18.3261C8.8976 15.6538 10.8237 13.1799 15.3559 13.1799C21.1308 13.1816 21.7649 17.4063 21.7649 18.2782Z" fill="white"/>
<path d="M35.8151 26.0999C35.64 27.0146 34.4602 30.487 29.8651 30.487C27.8166 30.487 26.3053 29.6749 25.3788 28.7465C24.5254 27.8882 23.6006 26.3649 23.6006 24.0141C23.6006 21.2701 24.8178 19.7228 25.7919 18.8902C27.2318 17.6661 28.7907 17.4934 29.8872 17.4934C32.2519 17.4934 33.7394 18.5722 34.5673 19.5792C35.3238 20.4853 36.0055 21.9796 36.0055 24.0893V24.7253H27.4936C27.4936 26.3701 28.1226 28.037 30.0334 28.037C31.662 28.037 32.3233 26.7752 32.4712 26.0999H35.8151ZM32.2774 22.643C32.2774 22.0343 32.0037 19.9451 29.9365 19.9451C27.871 19.9451 27.4936 21.7779 27.4936 22.643H32.2774Z" fill="white"/>
<path d="M42.5056 17.7396H45.0879V20.3144H42.5056V25.9255C42.5056 26.3666 42.5057 26.9069 42.8949 27.3223C43.2111 27.642 43.6242 27.6899 44.0152 27.6899H45.3565V30.2664C44.5286 30.3861 43.4576 30.4869 42.6757 30.4869C41.7747 30.4869 40.5558 30.2903 39.75 29.4321C38.8269 28.4541 38.8745 27.2249 38.8745 26.0264V20.3144H36.9229V17.7396H38.8745L39.2144 13.9167H42.5056V17.7396Z" fill="white"/>
<path d="M68.3639 30.2408H66.3154L65.7085 28.4046C65.292 28.9688 64.731 29.4561 64.1955 29.7775C63.2945 30.2921 62.1232 30.4887 61.1015 30.4887C59.5902 30.4887 57.6896 30.1673 56.1052 28.4046C54.6449 26.7855 53.8867 24.2364 53.8867 22.0566C53.8867 19.8237 54.5208 17.3242 55.9811 15.6316C57.7134 13.6227 59.8809 13.1816 61.6115 13.1816C66.6571 13.1816 68.08 16.5685 68.3146 19.1142H64.5355C64.4641 18.5022 64.221 17.767 63.8555 17.2746C63.4662 16.7361 62.759 16.124 61.5401 16.124C60.5881 16.124 59.4678 16.5155 58.7368 17.938C58.543 18.3295 58.0806 19.3587 58.0806 21.8104C58.0806 23.2568 58.2489 24.8502 58.8592 25.8794C59.3726 26.736 60.2464 27.5481 61.6846 27.5481C62.589 27.5481 63.3183 27.2044 63.8062 26.7137C64.2924 26.2231 64.6613 25.3922 64.6613 24.5083V24.0894H61.3191V21.2205H68.3656V30.2408H68.3639Z" fill="white"/>
<path d="M71.0596 30.2408V17.7396H74.2301V20.5093H74.2794C74.3984 19.5536 74.8642 18.8919 75.1804 18.55C75.5935 18.1089 76.3721 17.4951 77.6403 17.4951C77.8613 17.4951 78.0806 17.5225 78.2999 17.5447V20.829H77.7151C77.1065 20.829 76.52 20.9521 76.0559 21.2461C74.8625 22.0052 74.6908 23.1832 74.6908 24.5048V30.2391H71.0596V30.2408Z" fill="white"/>
<path d="M89.7767 19.2099C90.3615 19.7998 91.628 21.3419 91.628 23.9645C91.628 25.9751 90.8494 27.7651 89.6798 28.8935C88.8281 29.7022 87.4375 30.487 85.4638 30.487C83.4867 30.487 82.0995 29.7022 81.2461 28.8935C80.0765 27.7651 79.2979 25.9751 79.2979 23.9645C79.2979 21.3419 80.5661 19.7981 81.1526 19.2099C82.5908 17.7875 84.2449 17.4934 85.4655 17.4934C86.681 17.4934 88.3385 17.7875 89.7767 19.2099ZM83.7315 20.9264C83.145 21.8326 83.0974 23.0328 83.0974 23.9645C83.0974 25.6554 83.3643 26.4641 83.6584 26.9804C84.1208 27.7891 84.8059 28.0353 85.4638 28.0353C86.12 28.0353 86.8051 27.7874 87.2675 26.9804C87.5616 26.4641 87.8285 25.6571 87.8285 23.9645C87.8285 23.0328 87.7809 21.8326 87.1961 20.9264C86.7813 20.2648 86.2441 19.9451 85.4638 19.9451C84.6835 19.9451 84.1446 20.2665 83.7315 20.9264Z" fill="white"/>
<path d="M97.0465 17.7395V25.2655C97.0465 25.7288 97.0465 26.6127 97.4579 27.1513C97.7265 27.5189 98.1889 27.7155 98.6989 27.7155C99.2837 27.7155 99.9178 27.447 100.334 26.8829C100.819 26.2469 100.895 25.4895 100.895 24.85V17.7412H104.525V30.2424H101.16V28.0112H101.115C100.479 29.4833 99.2106 30.4886 97.3865 30.4886C96.2628 30.4886 95.4366 30.1449 94.8025 29.603C93.5819 28.5737 93.4102 27.1513 93.4102 25.8553V17.7412H97.0465V17.7395Z" fill="white"/>
<path d="M107.18 34.2602V17.7396H110.544V19.7502C111.299 18.2799 112.762 17.4951 114.321 17.4951C117.369 17.4951 119.001 20.1673 119.001 23.8705C119.001 28.5755 116.587 30.4887 114.175 30.4887C112.689 30.4887 111.571 29.8749 110.813 28.6491V34.2619H107.18V34.2602ZM110.813 25.2417C110.813 26.9821 111.615 28.037 112.931 28.037C114.738 28.037 115.195 26.0503 115.195 23.9423C115.195 21.0991 114.32 19.9451 112.931 19.9451C111.639 19.9451 110.813 21.0495 110.813 22.5455V25.2417Z" fill="white"/>
<path d="M51.7715 11.6326H48.0791V30.2031H51.7715V11.6326Z" fill="white"/>
<path d="M51.7546 11.6377H48.0605V30.2065H51.7546V11.6377Z" fill="white"/>
<path d="M0 0.500977V52.4991H51.7616V33.9867H48.0641V48.7788H3.7451L3.7315 4.23491L48.0641 4.22123V7.9432H51.7616V0.500977H0Z" fill="white"/>
</g>
<defs>
<clipPath id="clip0">
<rect width="119" height="53" fill="white"/>
</clipPath>
</defs>
</svg>
