<svg width="100" height="100" viewBox="0 0 100 100" fill="none" xmlns="http://www.w3.org/2000/svg">
<path d="M19 18C18.448 18 18 18.447 18 19V81C18 81.553 18.448 82 19 82H81C81.553 82 82 81.553 82 81V19C82 18.447 81.553 18 81 18H19ZM20 20H80V80H20V20ZM25.5 32C25.224 32 25 32.224 25 32.5V37.5C25 37.776 25.224 38 25.5 38H74.5C74.776 38 75 37.776 75 37.5V32.5C75 32.224 74.776 32 74.5 32H70.5C70.224 32 70 32.224 70 32.5C70 32.776 70.224 33 70.5 33H74V37H26V33H61.5C61.776 33 62 32.776 62 32.5C62 32.224 61.776 32 61.5 32H25.5ZM63.5 32C63.224 32 63 32.224 63 32.5C63 32.776 63.224 33 63.5 33H67.5C67.776 33 68 32.776 68 32.5C68 32.224 67.776 32 67.5 32H63.5ZM25.5 42C25.224 42 25 42.224 25 42.5V47.5C25 47.776 25.224 48 25.5 48H69.5C69.776 48 70 47.776 70 47.5V42.5C70 42.224 69.776 42 69.5 42H37.5C37.224 42 37 42.224 37 42.5C37 42.776 37.224 43 37.5 43H69V47H26V43H32.5C32.776 43 33 42.776 33 42.5C33 42.224 32.776 42 32.5 42H25.5ZM25.5 52C25.224 52 25 52.224 25 52.5V57.5C25 57.776 25.224 58 25.5 58H49.5C49.776 58 50 57.776 50 57.5C50 57.224 49.776 57 49.5 57H26V53H63V57H57.5C57.224 57 57 57.224 57 57.5C57 57.776 57.224 58 57.5 58H63.5C63.776 58 64 57.776 64 57.5V52.5C64 52.224 63.776 52 63.5 52H25.5ZM51.5 57C51.224 57 51 57.224 51 57.5C51 57.776 51.224 58 51.5 58H54.5C54.776 58 55 57.776 55 57.5C55 57.224 54.776 57 54.5 57H51.5ZM25.5 62C25.224 62 25 62.224 25 62.5V67.5C25 67.776 25.224 68 25.5 68H33.5C33.776 68 34 67.776 34 67.5C34 67.224 33.776 67 33.5 67H26V63H72V67H39.5C39.224 67 39 67.224 39 67.5C39 67.776 39.224 68 39.5 68H72.5C72.776 68 73 67.776 73 67.5V62.5C73 62.224 72.776 62 72.5 62H25.5Z" fill="#E4B564"/>
</svg>
