<svg width="50" height="50" viewBox="0 0 50 50" fill="none" xmlns="http://www.w3.org/2000/svg">
<g clip-path="url(#clip0)">
<path d="M0.0019532 22.0234L6.02539 27.9102C6.27148 28.1719 6.63867 28.2812 6.98633 28.1953C7.33398 28.1094 7.61133 27.8437 7.70898 27.5C7.81054 27.1523 7.71679 26.7812 7.46289 26.5273L3.73242 23.0234L46.9863 23.0234C47.3457 23.0273 47.6816 22.8398 47.8652 22.5273C48.0449 22.2148 48.0449 21.832 47.8652 21.5195C47.6816 21.207 47.3457 21.0195 46.9863 21.0234L3.73242 21.0234L7.46289 18.1914C7.7168 17.9375 7.81054 17.5664 7.70898 17.2187C7.61133 16.875 7.33398 16.6093 6.98633 16.5234C6.63867 16.4375 6.27148 16.5468 6.02539 16.8085L0.0019532 22.0234Z" fill="#606060"/>
</g>
<defs>
<clipPath id="clip0">
<rect width="50" height="50" fill="white" transform="translate(0 50) rotate(-90)"/>
</clipPath>
</defs>
</svg>
