<svg width="50" height="50" viewBox="0 0 50 50" fill="none" xmlns="http://www.w3.org/2000/svg">
<g clip-path="url(#clip0)">
<path d="M22.0239 49.998L27.9106 43.9746C28.1724 43.7285 28.2817 43.3613 28.1958 43.0137C28.1099 42.666 27.8442 42.3887 27.5005 42.291C27.1528 42.1895 26.7817 42.2832 26.5278 42.5371L23.0239 46.2676L23.0239 3.01367C23.0278 2.6543 22.8403 2.31836 22.5278 2.13477C22.2153 1.95508 21.8325 1.95508 21.52 2.13477C21.2075 2.31836 21.02 2.6543 21.0239 3.01367L21.0239 46.2676L18.1919 42.5371C17.9379 42.2832 17.5669 42.1895 17.2192 42.291C16.8754 42.3887 16.6098 42.666 16.5239 43.0137C16.4379 43.3613 16.5473 43.7285 16.809 43.9746L22.0239 49.998Z" fill="#606060"/>
</g>
<defs>
<clipPath id="clip0">
<rect width="50" height="50" fill="white" transform="translate(50 50) rotate(-180)"/>
</clipPath>
</defs>
</svg>
